<svg width="48" height="48" viewBox="0 0 48 48" fill="none" xmlns="http://www.w3.org/2000/svg">
  <path d="M24 48C37.2548 48 48 37.2548 48 24C48 10.7452 37.2548 0 24 0C10.7452 0 0 10.7452 0 24C0 37.2548 10.7452 48 24 48Z" fill="#0098EA"/>
  <path d="M32.3333 14H15.6667L14 18.6667V24.6667L15.6667 26.3333H19L20.6667 28V31.3333L22.3333 33H25.6667L27.3333 31.3333V28L29 26.3333H32.3333L34 24.6667V18.6667L32.3333 14Z" fill="white"/>
  <path d="M17.3333 18.6667H30.6667V22.3333H17.3333V18.6667Z" fill="#0098EA"/>
</svg>